<?xml version="1.0" encoding="UTF-8" standalone="no"?>
<!-- Uploaded to: SVG Repo, www.svgrepo.com, Generator: SVG Repo Mixer Tools -->

<svg
   width="800px"
   height="800px"
   viewBox="0 0 24 24"
   fill="none"
   version="1.1"
   id="svg1414"
   sodipodi:docname="logo.svg"
   inkscape:export-filename="../41f4b7a5/favicon.ico.png"
   inkscape:export-xdpi="5.7600002"
   inkscape:export-ydpi="5.7600002"
   inkscape:version="1.2.2 (732a01da63, 2022-12-09, custom)"
   xmlns:inkscape="http://www.inkscape.org/namespaces/inkscape"
   xmlns:sodipodi="http://sodipodi.sourceforge.net/DTD/sodipodi-0.dtd"
   xmlns="http://www.w3.org/2000/svg"
   xmlns:svg="http://www.w3.org/2000/svg">
  <defs
     id="defs1418" />
  <sodipodi:namedview
     id="namedview1416"
     pagecolor="#505050"
     bordercolor="#eeeeee"
     borderopacity="1"
     inkscape:showpageshadow="0"
     inkscape:pageopacity="0"
     inkscape:pagecheckerboard="0"
     inkscape:deskcolor="#505050"
     showgrid="false"
     inkscape:zoom="0.67440309"
     inkscape:cx="169.03837"
     inkscape:cy="375.88796"
     inkscape:window-width="1920"
     inkscape:window-height="966"
     inkscape:window-x="1920"
     inkscape:window-y="27"
     inkscape:window-maximized="1"
     inkscape:current-layer="svg1414" />
  <path
     d="M 8.5223723,2.341642 H 19.48637 c 0.756931,0 1.370507,0.6136033 1.370507,1.3705067 V 21.528735 c 0,0.756931 -0.613576,1.370507 -1.370507,1.370507 H 5.7813589 c -0.7569034,0 -1.3705067,-0.613576 -1.3705067,-1.370507 V 10.564682 m 4.1115201,-8.22304 -5.48e-5,5.4820268 c 0,1.5138616 -1.2271928,2.7410132 -2.7410134,2.7410132 -1.5138206,0 -2.7410134,-1.2271516 -2.7410134,-2.7410132 V 2.341642 m 5.4820816,0 c 0,-0.7569035 -0.6136582,-1.37050675 -1.3705616,-1.37050675 -0.7569034,0 -1.3705066,0.61360325 -1.3705066,1.37050675 v 5.4820268 m 5.4820259,0 h 5.482027 M 9.8928244,11.935188 h 6.8525326 m -8.2229847,4.111521 h 8.2229847"
     stroke="#464455"
     stroke-linecap="round"
     stroke-linejoin="round"
     id="path1412"
     inkscape:label="path1412"
     style="stroke:#ffffff;stroke-width:1.37044;stroke-dasharray:none;stroke-opacity:1" />
</svg>
